<svg width="121" height="59" viewBox="0 0 121 59" fill="none" xmlns="http://www.w3.org/2000/svg">
<path d="M120.562 55.3713C120.562 57.0346 93.5668 58.3899 60.2751 58.3899C26.9833 58.3899 0 57.0346 0 55.3713C0 53.7079 26.9957 52.3526 60.2874 52.3526C93.5792 52.3526 120.562 53.7079 120.562 55.3713Z" fill="#D9D9D9"/>
<path d="M16.8306 46.2907C16.8306 46.2907 11.3477 29.842 25.5663 29.0411C40.1176 28.2156 40.9308 27.3038 40.9308 27.3038C40.9308 27.3038 52.8084 14.0709 71.9309 15.3153C91.4845 16.5844 99.3085 20.2931 98.8526 20.0959C98.8526 20.0959 98.8772 20.9954 98.2488 20.9091C97.2015 20.7489 95.8832 20.022 96.6717 21.9811C97.9162 25.0983 104.57 29.0534 104.779 33.834C104.989 38.6146 102.906 46.303 102.906 46.303H16.8306V46.2907Z" fill="#318EB7"/>
<path d="M15.9928 37.0127C17.6808 37.025 21.6359 37.0004 22.0425 36.5938C24.6669 33.7353 22.8927 32.9714 22.8927 32.9714H17.5207C16.6951 34.1912 16.2269 35.5834 15.9928 37.0127Z" fill="#BDBDBD"/>
<path d="M43.7154 28.6098C44.3931 25.2338 54.5827 19.2457 62.2834 18.3093C70.2429 17.8042 74.9003 18.1122 74.9003 18.1122L74.6662 28.5482C74.6662 28.5482 47.3132 28.6098 43.7154 28.6098Z" fill="#4A484B"/>
<path d="M43.7155 29.0534C43.58 29.0534 43.4567 28.9918 43.3705 28.8933C43.2843 28.7824 43.2473 28.6468 43.2719 28.5236C44.0235 24.7657 54.6567 18.7899 62.2342 17.8658C65.3022 17.6687 68.2099 17.5701 70.9083 17.5701C73.4834 17.5701 74.8757 17.6564 74.9373 17.6687C75.1837 17.681 75.3685 17.8905 75.3562 18.1246L75.1221 28.5606C75.1221 28.807 74.9127 29.0042 74.6662 29.0042C74.6662 29.0042 47.3133 29.0534 43.7155 29.0534ZM70.9083 18.4696C68.2346 18.4696 65.3391 18.5681 62.3204 18.7653C55.0756 19.6524 45.8594 24.9505 44.3439 28.1663C49.3093 28.1663 70.8713 28.117 74.235 28.117L74.4445 18.5558C73.8407 18.5065 72.6332 18.4696 70.9083 18.4696Z" fill="#212121"/>
<path d="M76.2556 18.1368C76.2556 18.1368 89.969 19.2087 92.7906 21.2294C92.7906 21.2294 93.1355 27.9198 95.5998 28.5975H76.2556V18.1368Z" fill="#4A484B"/>
<path d="M95.6244 29.0532C95.6121 29.0532 95.6121 29.0532 95.5998 29.0532H76.2556C76.0091 29.0532 75.7997 28.8561 75.7997 28.6096V18.1367C75.7997 18.0134 75.849 17.8902 75.9475 17.804C76.0338 17.7178 76.157 17.6685 76.2925 17.6931C76.8593 17.7424 90.1661 18.7897 93.0493 20.872C93.1602 20.9459 93.2341 21.0814 93.2341 21.2169C93.3573 23.6565 94.1336 27.6732 95.6737 28.1661C95.8955 28.1907 96.068 28.3879 96.068 28.6096C96.0803 28.8561 95.8708 29.0532 95.6244 29.0532ZM76.7114 28.1538H94.2321C92.7782 26.3549 92.4332 22.56 92.3593 21.4757C89.6487 19.8247 79.1141 18.8266 76.7114 18.6172V28.1538Z" fill="#212121"/>
<path d="M68.8137 30.1744C67.7787 30.1744 66.8916 30.6303 66.8916 31.1724C66.8916 31.7146 67.7664 32.1704 68.8137 32.1704C69.8486 32.1704 70.7235 31.7146 70.7235 31.1724C70.7358 30.6303 69.861 30.1744 68.8137 30.1744Z" fill="#086390"/>
<path d="M91.9527 30.1744C90.9177 30.1744 90.0429 30.6303 90.0429 31.1724C90.0429 31.7146 90.9177 32.1704 91.9527 32.1704C92.9877 32.1704 93.8625 31.7146 93.8625 31.1724C93.8625 30.6303 92.9877 30.1744 91.9527 30.1744Z" fill="#086390"/>
<path d="M94.9221 31.1603C94.9221 31.3944 94.7373 31.5916 94.5032 31.5916L89.2174 31.6039C88.9833 31.6039 88.7861 31.4067 88.7861 31.1726C88.7861 30.9385 88.971 30.7414 89.2051 30.7414L94.5155 30.4827C94.7496 30.495 95.1439 30.6428 94.9221 31.1603Z" fill="#212121"/>
<path d="M104.151 31.2712C104.471 32.146 104.767 33.0455 105.062 33.9326C104.816 36.5447 104.446 39.1198 103.966 41.6703C103.596 41.3746 103.214 41.0912 102.845 40.7955C102.857 37.6043 102.697 34.4377 102.352 31.2835C102.808 31.0125 103.251 30.7537 103.707 30.4827C103.855 30.7414 104.003 31.0001 104.151 31.2712Z" fill="#DB2A24"/>
<path d="M103.67 31.8256C103.892 31.7393 104.151 32.0966 104.311 32.4786C104.459 32.8359 104.52 33.2548 104.336 33.3657C104.323 33.3657 104.311 33.378 104.299 33.378C104.077 33.4643 103.818 33.0946 103.67 32.7127C103.535 32.3554 103.461 31.9488 103.646 31.8256C103.646 31.8379 103.658 31.8256 103.67 31.8256ZM104.114 32.5525C103.978 32.2075 103.806 32.0473 103.769 32.035C103.744 32.072 103.732 32.3061 103.867 32.6511C104.015 33.0084 104.175 33.1686 104.212 33.1686C104.237 33.1316 104.249 32.9098 104.114 32.5525Z" fill="#FF6963"/>
<path d="M104.335 33.5875C104.459 33.5382 104.619 33.76 104.705 33.9817C104.791 34.2035 104.816 34.45 104.717 34.5116C104.705 34.5116 104.705 34.5239 104.693 34.5239C104.557 34.5732 104.409 34.3514 104.323 34.1173C104.237 33.9078 104.212 33.6614 104.311 33.5875C104.311 33.5998 104.323 33.5998 104.335 33.5875ZM104.582 34.031C104.508 33.8216 104.409 33.723 104.385 33.723C104.372 33.7477 104.36 33.8832 104.446 34.0926C104.52 34.3021 104.619 34.4007 104.644 34.4007C104.644 34.376 104.656 34.2405 104.582 34.031Z" fill="#FF6963"/>
<path d="M104.175 38.2449C103.954 38.3804 103.732 38.5036 103.51 38.6268C103.535 38.6638 103.559 38.7131 103.572 38.7501C103.793 38.6269 104.015 38.4913 104.225 38.3681C104.212 38.3188 104.2 38.2819 104.175 38.2449Z" fill="#FF6963"/>
<path d="M104.151 37.4071C103.929 37.5303 103.707 37.6659 103.498 37.7891C103.522 37.8261 103.547 37.8753 103.559 37.9123C103.781 37.7891 104.003 37.6536 104.212 37.5303C104.2 37.4934 104.175 37.4564 104.151 37.4071Z" fill="#FF6963"/>
<path d="M104.126 36.5816C103.904 36.7171 103.695 36.8403 103.473 36.9759C103.498 37.0128 103.522 37.0621 103.547 37.0991C103.756 36.9635 103.978 36.8403 104.2 36.7048C104.175 36.6678 104.151 36.6309 104.126 36.5816Z" fill="#FF6963"/>
<path d="M104.089 35.7561C103.867 35.8916 103.658 36.0148 103.436 36.1503C103.461 36.1873 103.485 36.2366 103.51 36.2735C103.732 36.138 103.941 36.0148 104.151 35.8793C104.138 35.8423 104.114 35.8053 104.089 35.7561Z" fill="#FF6963"/>
<path d="M104.052 34.9429C103.843 35.0784 103.621 35.214 103.411 35.3372C103.436 35.3742 103.461 35.4111 103.485 35.4604C103.695 35.3249 103.917 35.2017 104.126 35.0661C104.101 35.0168 104.077 34.9799 104.052 34.9429Z" fill="#FF6963"/>
<path d="M96.6594 21.9686C96.6471 21.9317 96.6348 21.8947 96.6224 21.8577L96.4007 22.3629C96.4007 22.3629 100.405 28.9547 103.128 29.6817C101.009 26.7123 97.5219 24.1372 96.6594 21.9686Z" fill="#4A484B"/>
<path d="M42.3602 26.8602C45.958 23.0283 55.359 18.4202 56.8252 17.8534C57.4289 17.6193 57.5275 17.3606 57.4413 17.1388C46.9929 20.5394 40.9063 27.3037 40.9063 27.3037C40.9063 27.3037 40.9063 27.3038 40.8816 27.3161C41.239 27.5255 41.7564 27.5994 42.3602 26.8602Z" fill="#262529"/>
<path d="M35.7067 36.0149C35.7067 36.0149 39.6741 33.9573 49.1861 33.9573C58.698 33.9573 88.7863 33.9573 88.7863 33.9573C88.7863 33.9573 99.7521 34.0558 99.7521 43.0503C99.7521 44.9354 99.7521 46.2907 99.7521 46.2907H35.7067V36.0149Z" fill="#086390"/>
<path d="M76.2556 28.9794H73.5449V17.6316L76.2556 17.7055V28.9794Z" fill="#212121"/>
<path d="M15.9313 41.9782C16.2147 44.4548 16.8307 46.2906 16.8307 46.2906H25.4802V44.4178H20.9953V42.6559L15.9313 41.9782Z" fill="black"/>
<path d="M45.847 46.2906H76.884V45.4405H46.0811L45.847 46.2906Z" fill="url(#paint0_linear)"/>
<path d="M86.6793 36.0149C82.5148 36.0149 78.9047 38.4791 77.2413 42.0276C77.2413 42.0276 76.2433 43.8881 76.2556 46.4386C77.4384 46.4386 78.2393 46.4386 78.2393 46.4386H97.0907C97.0907 40.6846 92.421 36.0149 86.6793 36.0149Z" fill="black"/>
<path d="M95.5998 46.4262C95.5998 51.3547 91.6078 55.359 86.667 55.359C81.7385 55.359 77.7342 51.3547 77.7342 46.4262C77.7342 41.4977 81.7385 37.4934 86.667 37.4934C91.6078 37.5057 95.5998 41.4977 95.5998 46.4262Z" fill="#504E51"/>
<path d="M86.6793 51.638C83.8085 51.638 81.4675 49.297 81.4675 46.4262C81.4675 43.5553 83.8085 41.2143 86.6793 41.2143C89.5502 41.2143 91.8912 43.5553 91.8912 46.4262C91.8912 49.297 89.5502 51.638 86.6793 51.638Z" fill="#E3E3E3"/>
<path d="M86.6793 47.9171C85.8538 47.9171 85.1884 47.2518 85.1884 46.4263C85.1884 45.6008 85.8538 44.9354 86.6793 44.9354C87.4925 44.9354 88.1702 45.6008 88.1702 46.4263C88.1702 47.2518 87.4925 47.9171 86.6793 47.9171Z" fill="#1C2426"/>
<path d="M35.7068 36.0149C31.5422 36.0149 27.9321 38.4791 26.2688 42.0276C26.2688 42.0276 25.2708 43.8881 25.2831 46.4386C26.4659 46.4386 27.2668 46.4386 27.2668 46.4386H46.1181C46.1305 40.6846 41.4607 36.0149 35.7068 36.0149Z" fill="black"/>
<path d="M44.6395 46.4262C44.6395 51.3547 40.6475 55.359 35.7067 55.359C30.7782 55.359 26.7738 51.3547 26.7738 46.4262C26.7738 41.4977 30.7782 37.4934 35.7067 37.4934C40.6475 37.5057 44.6395 41.4977 44.6395 46.4262Z" fill="#504E51"/>
<path d="M35.7067 51.638C32.8358 51.638 30.4948 49.297 30.4948 46.4262C30.4948 43.5553 32.8358 41.2143 35.7067 41.2143C38.5775 41.2143 40.9185 43.5553 40.9185 46.4262C40.9185 49.297 38.5775 51.638 35.7067 51.638Z" fill="#E3E3E3"/>
<path d="M35.7067 47.9171C34.8812 47.9171 34.2158 47.2518 34.2158 46.4263C34.2158 45.6008 34.8812 44.9354 35.7067 44.9354C36.5322 44.9354 37.1975 45.6008 37.1975 46.4263C37.1975 47.2518 36.5322 47.9171 35.7067 47.9171Z" fill="#1C2426"/>
<path d="M103.498 43.8142L99.7521 43.0502L97.2016 46.2907H102.894C102.894 46.2907 103.165 45.2927 103.498 43.8142Z" fill="black"/>
<path d="M44.6888 27.1065L43.6415 28.2401L44.3069 28.8685L45.7361 28.4002L44.6888 27.1065Z" fill="url(#paint1_linear)"/>
<path d="M48.5946 27.7966L48.1387 24.4699C48.0648 23.8662 47.3255 23.5458 46.5493 23.8416C44.8736 24.4576 44.2329 27.9568 44.3192 28.1047C44.7627 28.9672 45.8963 28.9056 47.2146 28.8932C48.0648 28.9056 48.6685 28.4004 48.5946 27.7966Z" fill="#A6A6A6"/>
<path d="M71.7953 31.1603C71.7953 31.3944 71.6105 31.5916 71.3764 31.5916L66.0906 31.6039C65.8565 31.6039 65.6594 31.4067 65.6594 31.1726C65.6594 30.9385 65.8442 30.7414 66.0783 30.7414L71.3887 30.4827C71.6105 30.495 72.0048 30.6428 71.7953 31.1603Z" fill="#212121"/>
<path d="M47.0791 56.6034C46.8943 56.6034 46.6725 56.5788 46.4507 56.5541C46.2782 56.5418 46.0934 56.5172 45.9209 56.5172C45.7361 56.5172 45.5513 56.5418 45.3911 56.5541C45.157 56.5788 44.9475 56.6034 44.7627 56.6034C43.6169 56.6034 42.8653 55.8764 42.8653 54.7429V54.6197C42.8653 54.5827 42.8653 54.4102 42.8653 54.4102L42.9885 53.4369C43.0008 53.1904 43.0378 52.9563 43.0994 52.7222C43.0624 52.5497 43.0254 52.3896 42.9885 52.2047C42.8899 51.6873 42.8899 51.1698 42.8899 50.6646C42.8899 50.2087 42.8899 49.7775 42.816 49.3462C42.7174 48.7302 42.2985 46.1181 42.2985 46.1181C42.2492 45.8347 42.1999 45.157 42.1506 44.4917C42.1137 43.9249 42.0644 43.3458 42.0274 43.0994L41.7564 41.51C41.6824 41.1034 41.6208 40.6968 41.5715 40.3148C41.5223 40.7091 41.4607 41.1034 41.3867 41.5223L41.1157 43.0994C41.0787 43.3458 41.0294 43.9126 40.9925 44.4917C40.9432 45.157 40.8939 45.8347 40.8446 46.1304C40.8446 46.1304 40.4257 48.6809 40.3271 49.3462C40.2655 49.7651 40.2778 50.1841 40.2778 50.64C40.2901 51.1451 40.2901 51.6749 40.1916 52.2171C40.1546 52.4265 40.1053 52.6237 40.056 52.8085C40.1053 53.0179 40.1423 53.2274 40.1423 53.4369L40.2655 54.4102V54.7429C40.2655 55.8764 39.5262 56.6034 38.3804 56.6034C38.1955 56.6034 37.9738 56.5788 37.752 56.5541C37.5795 56.5418 37.3947 56.5172 37.2099 56.5172C37.025 56.5172 36.8402 56.5418 36.68 56.5541C36.4459 56.5788 36.2365 56.6034 36.0517 56.6034C34.9058 56.6034 34.1542 55.8764 34.1542 54.7429V54.6197C34.1542 54.5827 34.1542 54.4102 34.1542 54.4102L34.2774 53.4369C34.2897 52.981 34.413 52.5374 34.6347 52.1431C34.6347 52.0322 34.6224 51.9214 34.6224 51.8105C34.6224 51.3176 34.6963 50.8248 34.7703 50.3442C34.8442 49.8884 34.9181 49.4078 34.9181 48.952C34.9181 48.262 34.9058 47.5597 34.8935 46.8327C34.8935 46.8327 34.8442 42.9146 34.8442 42.6312L34.8072 41.0171C34.7703 39.9452 34.7456 38.9965 34.7087 38.1833C34.6717 37.3085 34.6347 36.6062 34.6101 36.1133C34.5978 36.0517 34.5855 35.9901 34.5855 35.9285C34.5608 35.9408 34.4622 36.0024 34.4622 36.0024L34.3021 36.0764C34.2405 36.2735 34.1419 36.4583 34.0064 36.6185C33.7476 36.9265 33.378 37.1113 32.9837 37.1483L32.7866 37.1606L32.0596 37.062C32.0473 37.062 31.8625 37.062 31.8625 37.062L31.5668 37.0004L31.4682 36.9635C31.2587 36.9019 31.0739 36.7786 30.9137 36.6185L30.8768 36.6062C30.655 36.5446 30.4579 36.4213 30.2977 36.2612L30.2361 36.2365L30.1745 36.2119C29.8418 36.064 29.5707 35.8053 29.4106 35.4603C29.2381 35.0907 29.2257 34.6841 29.3613 34.3021L29.3982 34.2159C29.4106 33.9201 29.4229 33.5012 29.4352 33.3164C29.4845 32.7373 29.8048 31.3327 29.8788 31.0247C29.8788 30.9631 29.8911 30.9015 29.8911 30.8275L30.7536 25.0982L31.2218 21.7961C31.3696 20.6995 31.5175 19.5906 31.6161 18.5803L31.653 18.1614C31.6777 17.8287 31.7023 17.5084 31.7146 17.2373V16.6582C31.7269 16.1407 31.7762 15.6725 31.8994 15.2166C32.0596 14.5759 32.3307 13.9968 32.7126 13.504C33.1316 12.9372 33.7476 12.432 34.4006 12.1487C34.8935 11.9269 35.411 11.7914 35.9777 11.7421C36.0763 11.7298 36.1502 11.7297 36.2242 11.7297C36.4829 11.6805 36.7047 11.6435 36.9388 11.6435H37.8875C37.9245 11.4957 37.9614 11.3601 37.9738 11.2492C37.9738 11.2369 37.8506 11.0398 37.8506 11.0398C37.4316 10.3867 37.1236 9.70909 36.9758 9.00678L36.8649 8.52626L36.8525 8.53857L36.4213 6.77664C36.3474 6.407 36.3104 6.03738 36.2858 5.61846C36.2735 5.45829 36.2734 5.28578 36.2734 5.12561V5.02703C36.3967 2.58744 37.9738 1.20747 38.8979 0.788553L39.0334 0.726962L40.2778 0.480524V0L41.5099 0.234105L42.7421 0V0.480524L43.9988 0.726962L44.1343 0.788553C45.0708 1.21979 46.6725 2.62441 46.7588 5.12561L45.9209 5.15025L46.7588 5.13794C46.7588 5.28579 46.7588 5.44597 46.7464 5.61846C46.7464 5.69239 46.7464 5.76631 46.7341 5.84023H46.7464L46.7218 5.96345C46.6971 6.23452 46.6602 6.49326 46.6109 6.76432L46.2289 8.64946L46.1427 8.58785L46.0441 9.00678C45.8839 9.72141 45.5882 10.436 45.1447 11.1137C45.1816 11.2985 45.2432 11.4587 45.3049 11.6435H46.0811C46.3029 11.6435 46.537 11.6681 46.7834 11.7174C46.8204 11.7174 46.8696 11.7174 46.9066 11.7174C47.0175 11.7174 47.1407 11.7174 47.2762 11.7297C47.8553 11.779 48.3728 11.9146 48.878 12.1363C49.5187 12.4197 50.1348 12.9249 50.566 13.504C50.9356 13.9968 51.219 14.5759 51.3792 15.2166C51.5024 15.6848 51.5517 16.1407 51.564 16.6459V17.2496C51.5763 17.5207 51.601 17.8287 51.6256 18.1614L51.6626 18.5926C51.7611 19.603 51.909 20.7119 52.0568 21.8208L52.5251 25.1352L53.3506 30.6797C53.4738 30.6058 53.6093 30.5565 53.7448 30.4949C54.0898 30.3593 54.4472 30.2977 54.8168 30.2977C55.3959 30.2977 55.9627 30.4702 56.4432 30.7783C56.4432 30.7783 57.1208 31.0616 57.5398 32.1213C57.9587 33.1809 57.7615 33.9571 57.7615 33.9571L57.7246 34.1173C57.4782 35.0414 56.7882 35.793 55.901 36.1256C55.5561 36.2612 55.1987 36.3228 54.8291 36.3228C54.3609 36.3228 53.8927 36.2119 53.4738 36.0024C53.3629 36.0887 53.252 36.1626 53.1165 36.2242L53.0302 36.2981H52.9933C52.8331 36.4583 52.6236 36.5815 52.3895 36.6554H52.3649C52.1924 36.8156 51.9829 36.9511 51.7488 37.0251L51.4901 37.0867H51.3422L50.6769 37.1606L50.4797 37.1729C50.1717 37.9369 49.5557 38.5652 48.7671 38.8609C48.6316 38.9102 48.496 38.9472 48.3605 38.9841C48.3359 39.6248 48.3112 40.3025 48.2989 41.0294L48.2619 42.6312C48.2619 42.9023 48.188 48.2743 48.188 48.9396C48.188 49.4078 48.2496 49.8884 48.3112 50.3442C48.3728 50.8124 48.4344 51.3053 48.4344 51.7858C48.4344 51.8844 48.4344 51.9706 48.4221 52.0569C48.6562 52.4758 48.7917 52.9317 48.8164 53.4122L48.9396 54.3856V54.7183C48.9766 55.8641 48.225 56.6034 47.0791 56.6034Z" fill="white"/>
<path d="M53.2889 34.2529C53.1288 34.3145 52.9563 34.2283 52.907 34.0804L48.7917 35.6575L49.0381 36.2982L50.0731 35.7561L53.6216 34.5486C53.8557 34.4624 53.9666 34.1913 53.8804 33.9572L53.7941 33.7477L53.4738 33.871C53.523 34.0188 53.4491 34.1913 53.2889 34.2529Z" fill="#6E6D6A"/>
<path d="M48.5453 35.0169L48.7917 35.6576L52.907 34.0805C52.8454 33.9203 52.9193 33.7478 53.0795 33.6985C53.2397 33.6369 53.4122 33.7109 53.4615 33.871L53.7818 33.7478L53.6956 33.5384C53.6093 33.3043 53.3382 33.181 53.1041 33.2796L49.6419 34.7458L48.5453 35.0169Z" fill="#C4C1BA"/>
<path d="M53.2889 34.253C53.1287 34.3146 52.9562 34.2284 52.907 34.0805L52.8207 34.1175C52.8946 34.3146 53.1164 34.4255 53.3259 34.3393C53.523 34.2654 53.6216 34.0313 53.5477 33.8341L53.4614 33.8711C53.523 34.0189 53.4491 34.1914 53.2889 34.253Z" fill="#C4C1BA"/>
<path d="M53.0795 33.6986C53.2396 33.637 53.4121 33.7109 53.4614 33.8711L53.5477 33.8341C53.4737 33.637 53.2396 33.5384 53.0425 33.6123C52.8454 33.6862 52.7345 33.9203 52.8207 34.1175L52.907 34.0805C52.8454 33.9327 52.9193 33.7602 53.0795 33.6986Z" fill="#908F8B"/>
<path d="M49.7158 34.906L48.7917 35.1401L49.1367 36.0272L50.0115 35.5713L53.2643 34.4624C53.252 34.4624 53.3259 34.3269 53.3136 34.2406C53.1534 34.3022 52.9809 34.216 52.9316 34.0681C52.87 33.9079 52.9439 33.7355 53.1041 33.6862C53.1164 33.6862 53.1288 33.6738 53.1534 33.6738C53.1164 33.5999 52.944 33.563 52.944 33.5506L49.7158 34.906Z" fill="#908F8B"/>
<path d="M53.0425 33.6123C52.8454 33.6862 52.7468 33.9203 52.8208 34.1174C52.8947 34.3022 53.0918 34.4008 53.289 34.3515C53.3013 34.3146 53.3013 34.2776 53.3013 34.2529C53.1411 34.3146 52.9686 34.2283 52.9193 34.0805C52.8577 33.9203 52.9317 33.7478 53.0918 33.6985C53.1042 33.6985 53.1165 33.6862 53.1411 33.6862C53.1165 33.6492 53.0795 33.6369 53.0425 33.6123Z" fill="#6E6D6A"/>
<path d="M49.1244 36.0395L49.568 35.8054C49.5557 35.6575 49.5187 35.5097 49.4694 35.3742C49.4201 35.2509 49.3585 35.1277 49.2846 35.0168L48.7794 35.14L49.1244 36.0395Z" fill="#6E6D6A"/>
<path d="M46.0072 35.5836L47.8307 35.1031L48.4468 35.7684L48.4344 36.6802L46.7464 37.5426C47.2023 37.8383 47.7937 37.9246 48.3359 37.7151C49.2476 37.3701 49.7035 36.3475 49.3585 35.4357C49.0135 34.524 47.9909 34.0681 47.0791 34.4131C46.5247 34.6102 46.1427 35.0538 46.0072 35.5836Z" fill="#D9D5CE"/>
<path d="M49.0997 35.5097C49.0997 35.5466 49.0997 35.5836 49.0874 35.6205C49.0874 35.6329 49.0874 35.6452 49.0751 35.6698C49.0751 35.7438 49.0751 35.83 49.0628 35.9039C49.0628 35.9162 49.0628 35.9286 49.0504 35.9532C49.1244 36.2489 49.0751 36.5077 48.9396 36.7295C48.9396 36.7171 48.9272 36.6925 48.9272 36.6802C48.841 36.3845 48.7671 36.0887 48.7178 35.7807C48.7178 35.7438 48.7054 35.7191 48.7054 35.6821C48.5576 35.7438 48.4467 35.7807 48.4467 35.7807L48.4344 36.6925L46.7464 37.555C46.7587 37.555 46.7587 37.5673 46.771 37.5673L46.7587 37.5796C47.2146 37.8753 47.806 37.9616 48.3481 37.7521C49.2599 37.4071 49.7158 36.3845 49.3708 35.4727C49.3708 35.4604 49.3585 35.4604 49.3585 35.448C49.2722 35.4604 49.186 35.485 49.0997 35.5097Z" fill="#908F8B"/>
<path d="M49.2722 35.4482C49.5926 36.2984 49.149 37.2594 48.2742 37.5921C47.8799 37.74 47.461 37.7399 47.079 37.6044L48.6438 36.8159L48.6808 35.6823L47.8922 34.8568L46.2166 35.362C46.4137 35.0047 46.7094 34.672 47.1037 34.5241C47.9785 34.1791 48.9519 34.5981 49.2722 35.4482Z" fill="#C4C1BA"/>
<path d="M51.4161 35.2878L52.8947 34.6718L54.0282 34.3884L53.7818 33.7477L51.3545 34.6718C51.4284 34.8812 51.4408 35.0907 51.4161 35.2878Z" fill="#6E6D6A"/>
<path d="M51.0588 34.142C51.1697 34.2652 51.2683 34.4254 51.3299 34.5856C51.3422 34.6102 51.3422 34.6348 51.3545 34.6718L53.7818 33.7477L53.5354 33.107L52.5127 33.6368L51.0588 34.142Z" fill="#C4C1BA"/>
<path d="M51.182 34.3022C51.2436 34.3884 51.2559 34.5116 51.2929 34.6102C51.3545 34.7704 51.4284 34.9305 51.4284 35.0907L52.833 34.4993L53.7817 34.2529L53.4367 33.3657L52.5866 33.8093L51.182 34.3022Z" fill="#908F8B"/>
<path d="M53.7818 34.2651L53.2889 34.3883C53.2027 34.2774 53.1288 34.1419 53.0795 34.0063C53.0302 33.8831 53.0055 33.7476 52.9809 33.6121L53.4368 33.378L53.7818 34.2651Z" fill="#6E6D6A"/>
<path d="M55.8025 31.838L54.1145 32.7004L54.1022 33.6122L54.7183 34.2775L56.5418 33.7847C56.3939 34.3145 56.012 34.7581 55.4698 34.9675C54.5581 35.3125 53.5354 34.8566 53.1904 33.9449C52.8454 33.0331 53.3013 32.0105 54.2131 31.6655C54.7675 31.456 55.3466 31.5423 55.8025 31.838Z" fill="#D9D5CE"/>
<path d="M53.1903 33.9448C53.1903 33.9571 53.1903 33.9571 53.1903 33.9695C53.5353 34.8812 54.558 35.3371 55.4697 34.9921C56.0119 34.7827 56.3938 34.3268 56.5417 33.8093H56.5293C56.5293 33.797 56.5417 33.797 56.5417 33.7847L54.7181 34.2652L54.1021 33.5998C54.1021 33.5998 53.9912 33.6491 53.8433 33.6984C53.868 33.723 53.8803 33.7477 53.9049 33.7847C54.0774 34.0434 54.213 34.3268 54.3485 34.5978C54.3608 34.6225 54.3608 34.6348 54.3731 34.6471C54.139 34.5732 53.9173 34.413 53.7817 34.142C53.7694 34.1296 53.7571 34.1296 53.7448 34.1173C53.6832 34.068 53.6215 34.0064 53.5723 33.9448C53.5599 33.9325 53.5476 33.9325 53.5353 33.9202C53.5107 33.8956 53.486 33.8709 53.4614 33.8462C53.3751 33.8832 53.2889 33.9202 53.1903 33.9448Z" fill="#908F8B"/>
<path d="M53.2767 33.9201C53.597 34.7703 54.5704 35.1892 55.4452 34.8442C55.8395 34.6964 56.1598 34.413 56.3447 34.0557L54.6443 34.5116L53.8681 33.686L53.9051 32.5525L55.4945 31.8132C55.1125 31.6777 54.669 31.6284 54.2747 31.7763C53.3999 32.1089 52.9563 33.07 53.2767 33.9201Z" fill="#C4C1BA"/>
<path d="M45.1817 6.27155C44.4301 5.61853 43.7647 5.27353 42.7544 5.32281C42.7174 5.32281 42.6805 5.33513 42.6435 5.33513C42.2123 5.15031 41.818 5.0271 41.6085 5.06406C41.2389 5.13799 40.9801 5.3228 40.7953 5.54458C40.783 5.53226 40.783 5.50763 40.7707 5.49531C40.5366 4.99014 39.9698 5.1996 39.7603 5.56923C39.6864 5.63084 39.6248 5.69244 39.5755 5.77869C39.1812 5.77869 38.7747 5.79103 38.3681 5.88959C38.134 5.93888 37.9122 6.20993 37.9368 6.45636C38.0354 7.46669 38.2695 8.4031 38.5898 9.36415C38.7747 9.9186 38.787 10.4977 39.2552 10.855C39.2675 11.0029 39.2552 12.2843 38.5036 13.1714C38.2325 13.4917 38.8486 14.231 39.0088 14.3296C39.1936 14.4528 39.3784 14.539 39.5632 14.6006C39.822 15.3029 40.6475 15.5247 41.5962 15.2537C41.8057 15.1921 42.0028 15.1058 42.1876 15.0072C42.1999 15.0196 42.2123 15.0442 42.2369 15.0565C42.434 15.266 42.8653 15.3029 43.0624 15.0565C43.3088 14.7362 43.4813 14.4282 43.9742 14.4158C44.3192 14.4035 44.849 13.6026 44.6888 13.233C44.2945 12.2719 43.9742 11.7545 43.9003 10.7564C44.159 10.51 44.3315 10.2143 44.2822 9.84467C44.2822 9.82003 44.2699 9.79539 44.2699 9.78306C44.3192 9.70914 44.3685 9.63522 44.4177 9.56129C44.7381 9.01916 45.0215 8.03346 44.7504 7.38044C44.9106 7.34348 45.0584 7.25723 45.194 7.10938C45.3911 6.87527 45.4281 6.48101 45.1817 6.27155Z" fill="#EBC59B"/>
<path d="M52.2294 31.3328C52.2294 31.3328 52.599 32.9346 52.6483 33.4767C52.673 33.7601 52.6976 34.5979 52.6976 34.5979C52.6976 34.5979 52.2294 34.8813 51.6749 35.1647C51.6503 35.1031 51.601 35.1031 51.5764 35.1154C51.5517 35.1277 51.5148 35.1524 51.5148 35.2386C51.3423 35.3249 51.1698 35.4111 51.0096 35.4727C50.9973 35.4358 50.9726 35.3372 50.911 35.3126C50.8248 35.2633 50.7016 35.4481 50.7139 35.4974C50.6153 35.8177 50.2087 35.4481 50.1964 35.3249C50.1471 34.9183 50.0855 34.4624 49.7282 34.0188C49.3709 33.5629 49.6543 32.5033 49.9623 32.0844C49.9746 32.0721 49.9746 32.0598 49.9869 32.0598C50.0485 31.9982 50.1102 31.7271 50.2334 31.6655C50.8987 31.3575 52.2294 31.3328 52.2294 31.3328Z" fill="#EBC59B"/>
<path d="M52.6114 35.1277H52.6237C52.7592 35.0784 52.8332 34.9182 52.7839 34.7827L52.6607 34.4377C52.6114 34.3022 52.4512 34.2159 52.3034 34.2775C52.1555 34.3268 52.0939 34.487 52.1432 34.6348L52.2664 34.9798C52.328 35.0907 52.4758 35.1646 52.6114 35.1277Z" fill="#EBC59B"/>
<path d="M52.0322 35.4727C52.1677 35.4357 52.254 35.2878 52.217 35.1523L52.0692 34.5116C52.0322 34.3638 51.8844 34.2775 51.7365 34.3022C51.5886 34.3391 51.5024 34.487 51.527 34.6348L51.6749 35.2755C51.7119 35.4234 51.8597 35.5096 52.0076 35.485C52.0199 35.485 52.0199 35.4727 52.0322 35.4727Z" fill="#EBC59B"/>
<path d="M51.3915 35.8548C51.527 35.8178 51.6133 35.6699 51.5763 35.5344L51.4285 34.8937C51.3915 34.7458 51.2437 34.6596 51.0958 34.6842C50.948 34.7212 50.8617 34.8691 50.8863 35.0169L51.0342 35.6576C51.0712 35.8055 51.219 35.8917 51.3669 35.8671C51.3792 35.8547 51.3915 35.8548 51.3915 35.8548Z" fill="#EBC59B"/>
<path d="M50.5414 35.9287C50.64 35.8917 50.7262 35.8055 50.7386 35.6946L50.7878 35.1771C50.8002 35.0292 50.6893 34.8937 50.5414 34.8814C50.3936 34.8691 50.258 34.98 50.2457 35.1278L50.1964 35.6453C50.1841 35.7932 50.295 35.9287 50.4429 35.941C50.4798 35.9533 50.5168 35.941 50.5414 35.9287Z" fill="#EBC59B"/>
<path d="M50.1841 32.6881C50.0116 32.6019 49.8145 32.6758 49.7282 32.8483L49.1491 34.0558C49.1121 34.1297 49.1121 34.2159 49.1245 34.2899L49.2354 34.5486L49.297 34.6842L49.3339 34.7581L49.3586 34.795L49.3709 34.8197C49.4202 34.7827 49.4818 34.7704 49.5434 34.7704C49.5434 34.7704 49.642 34.7581 49.605 34.7704C49.6296 34.7704 49.6296 34.7581 49.642 34.7581C49.642 34.7581 49.6543 34.7458 49.6666 34.7458C49.7159 34.7088 49.7775 34.6718 49.8268 34.6349C49.8391 34.6349 49.8391 34.6226 49.8514 34.6226V34.6102L49.8637 34.6226V34.5979L49.8514 34.5363L49.8391 34.4008L49.8268 34.2776L50.3689 33.1563C50.4182 32.9838 50.3443 32.7744 50.1841 32.6881ZM49.3462 34.7458C49.3462 34.7335 49.3339 34.7704 49.3586 34.6718C49.3462 34.6965 49.3462 34.7211 49.3462 34.7458Z" fill="#EBC59B"/>
<path d="M46.6971 17.1512C46.6971 17.1512 46.6848 17.1512 46.6848 17.1635C46.6848 17.1635 46.6971 17.1635 46.7218 17.1635C46.7464 17.1635 46.7957 17.1512 46.8327 17.1388C46.7957 17.1265 46.7341 17.1142 46.6479 17.0772C46.5246 17.0279 46.3768 16.9047 46.2905 16.7938C46.2536 16.7446 46.2289 16.6953 46.2166 16.6706C46.2289 16.7076 46.2289 16.7569 46.2289 16.8308V16.8678V16.8801V16.9417V16.991C46.2289 17.0526 46.2289 17.1142 46.2413 17.1635C46.2413 17.2004 46.2536 17.2497 46.2536 17.2867C46.4014 17.2621 46.5493 17.2128 46.6971 17.1512C46.6848 17.1512 46.7095 17.1512 46.6971 17.1512Z" fill="black"/>
<path d="M50.3689 17.3237C50.3689 17.2375 50.3689 17.1512 50.3689 17.065C50.3689 16.9418 50.3689 16.8185 50.3689 16.6953C50.3689 16.3503 50.3319 15.9684 50.221 15.5618C50.1225 15.1552 49.9376 14.6993 49.6173 14.2804C49.3093 13.8615 48.8534 13.5042 48.4098 13.307C47.9663 13.1099 47.5597 13.036 47.2393 12.999C46.9066 12.9743 46.6356 12.999 46.4015 13.0236C45.9456 13.0852 45.6499 13.1838 45.4281 13.2577C45.3172 13.2947 45.2433 13.3317 45.1694 13.3563C45.0954 13.3933 45.0585 13.4056 45.0585 13.4056C44.0235 13.8615 43.5553 15.0566 44.0112 16.0916C44.4054 16.9787 45.3542 17.4469 46.2659 17.2744C46.2659 17.2375 46.2536 17.1882 46.2536 17.1512C46.2536 17.0896 46.2413 17.028 46.2413 16.9787V16.9294V16.8678V16.8555V16.8186C46.2413 16.7446 46.229 16.6953 46.229 16.6584C46.2167 16.6337 46.2166 16.6091 46.2166 16.6214C46.2166 16.6214 46.2167 16.6337 46.229 16.6584C46.2413 16.683 46.2659 16.7323 46.3029 16.7816C46.3768 16.8925 46.537 17.0157 46.6602 17.065C46.7465 17.1019 46.8081 17.1143 46.845 17.1266C46.8574 17.1266 46.882 17.1266 46.8943 17.1266C46.919 17.1266 46.919 17.1389 46.845 17.1266C46.8081 17.1266 46.7588 17.1389 46.7341 17.1512C46.7095 17.1512 46.6972 17.1512 46.6972 17.1512C46.7095 17.1512 46.7095 17.1512 46.7095 17.1389C46.7218 17.1389 46.7095 17.1389 46.7095 17.1389C46.5616 17.2005 46.4138 17.2498 46.2659 17.2744C46.2783 17.3853 46.2906 17.5085 46.2906 17.6194C46.3522 18.1862 46.4508 18.716 46.5493 19.2705C46.5986 19.5292 46.6479 19.8003 46.6972 20.059L50.4428 18.2724C50.3935 17.9521 50.3689 17.6194 50.3689 17.3237Z" fill="#C06C09"/>
<path d="M52.1924 31.0618C52.1924 31.0495 52.0199 29.9283 51.7611 28.2279C51.6379 27.3778 51.4901 26.3921 51.3299 25.3325C51.182 24.2729 51.0219 23.1516 50.8617 22.0181C50.7015 20.8969 50.566 19.7756 50.4674 18.7407C50.4551 18.5928 50.4428 18.4449 50.4304 18.2971L46.6848 20.0837C46.845 20.9338 47.0421 21.8086 47.2269 22.6711C47.4734 23.8046 48.2742 24.0388 48.533 25.0984C48.7917 26.1457 49.0382 27.1314 49.2599 27.9692C49.4817 28.807 49.6665 29.497 49.8021 29.9899C49.9376 30.4827 50.0115 30.7538 50.0115 30.7538C50.1963 31.4191 50.3319 32.7498 51.0219 32.6389C51.7858 32.528 52.3033 31.8134 52.1924 31.0618Z" fill="#EBC59B"/>
<path d="M31.0985 31.3328C31.0985 31.3328 30.7289 32.9346 30.6796 33.4767C30.655 33.7601 30.6303 34.5979 30.6303 34.5979C30.6303 34.5979 31.0985 34.8813 31.653 35.1647C31.6776 35.1031 31.7146 35.1031 31.7516 35.1154C31.7762 35.1277 31.8132 35.1524 31.8008 35.2386C31.9733 35.3249 32.1458 35.4111 32.306 35.4727C32.3183 35.4358 32.343 35.3372 32.4046 35.3126C32.4908 35.2633 32.614 35.4481 32.6017 35.4974C32.7003 35.8177 33.1069 35.4481 33.1192 35.3249C33.1685 34.9183 33.2301 34.4624 33.5874 34.0188C33.9447 33.5629 33.6613 32.5033 33.3533 32.0844C33.341 32.0721 33.341 32.0598 33.3287 32.0598C33.2671 31.9982 33.2055 31.7271 33.0823 31.6655C32.4169 31.3575 31.0985 31.3328 31.0985 31.3328Z" fill="#EBC59B"/>
<path d="M30.7043 35.1277H30.6919C30.5564 35.0784 30.4825 34.9182 30.5318 34.7827L30.655 34.4377C30.7043 34.3022 30.8644 34.2159 31.0123 34.2775C31.1601 34.3268 31.2218 34.487 31.1725 34.6348L31.0493 34.9798C31 35.0907 30.8521 35.1646 30.7043 35.1277Z" fill="#EBC59B"/>
<path d="M31.2833 35.4727C31.1478 35.4357 31.0616 35.2878 31.0985 35.1523L31.2464 34.5116C31.2833 34.3638 31.4312 34.2775 31.579 34.3022C31.7269 34.3391 31.8131 34.487 31.7885 34.6348L31.6407 35.2755C31.6037 35.4234 31.4558 35.5096 31.308 35.485C31.2957 35.485 31.2957 35.4727 31.2833 35.4727Z" fill="#EBC59B"/>
<path d="M31.9241 35.8548C31.7886 35.8178 31.7023 35.6699 31.7393 35.5344L31.8871 34.8937C31.9241 34.7458 32.0719 34.6596 32.2198 34.6842C32.3676 34.7212 32.4539 34.8691 32.4293 35.0169L32.2814 35.6576C32.2444 35.8055 32.0966 35.8917 31.9487 35.8671C31.9364 35.8547 31.9364 35.8548 31.9241 35.8548Z" fill="#EBC59B"/>
<path d="M32.7742 35.9287C32.6756 35.8917 32.5894 35.8055 32.5771 35.6946L32.5278 35.1771C32.5155 35.0292 32.6264 34.8937 32.7742 34.8814C32.9221 34.8691 33.0576 34.98 33.0699 35.1278L33.1069 35.6453C33.1192 35.7932 33.0083 35.9287 32.8605 35.941C32.8481 35.9533 32.8112 35.941 32.7742 35.9287Z" fill="#EBC59B"/>
<path d="M33.5998 32.8482L34.1789 34.0557C34.2158 34.1296 34.2158 34.2159 34.2035 34.2898L34.0803 34.5486L34.0187 34.6841L33.9817 34.758L33.9571 34.795L33.9447 34.8196V34.8319C33.9447 34.8196 33.9324 34.8689 33.9078 34.8936C33.8831 34.9182 33.8585 34.9428 33.8339 34.9552C33.8215 34.9675 33.8092 34.9675 33.7846 34.9798C33.7723 34.9798 33.7476 34.9921 33.7106 34.9921C33.6737 34.9921 33.6121 34.9921 33.5505 34.9428C33.4889 34.9059 33.4642 34.8319 33.4519 34.795C33.4396 34.6964 33.4519 34.7211 33.4519 34.7211V34.7087V34.6841C33.4765 34.5486 33.5998 34.45 33.7353 34.4746C33.8708 34.4993 33.9694 34.6225 33.9447 34.758V34.7457C33.9447 34.7334 33.9571 34.7703 33.9324 34.6718C33.9201 34.6348 33.8955 34.5609 33.8339 34.5239C33.7723 34.487 33.7106 34.4746 33.6737 34.4746C33.6367 34.4746 33.6121 34.487 33.5998 34.487C33.5874 34.487 33.5751 34.4993 33.5628 34.5116L33.4519 34.6348V34.6102L33.4642 34.5486L33.4765 34.413L33.5012 34.1297L33.5258 34.3637L32.9467 33.1563C32.8605 32.9838 32.9344 32.7866 33.1069 32.7004C33.3164 32.6141 33.5135 32.6881 33.5998 32.8482Z" fill="#EBC59B"/>
<path d="M36.6307 17.1511C36.6307 17.1511 36.643 17.1511 36.643 17.1634C36.643 17.1634 36.6307 17.1634 36.6061 17.1634C36.5814 17.1634 36.5321 17.1511 36.4952 17.1388C36.5321 17.1265 36.5937 17.1142 36.68 17.0772C36.8032 17.0279 36.951 16.9047 37.0373 16.7938C37.0743 16.7445 37.0989 16.6953 37.1112 16.6706C37.0989 16.7076 37.0989 16.7568 37.0989 16.8308V16.8677V16.8801V16.9417V16.991C37.0989 17.0526 37.0989 17.1142 37.0866 17.1634C37.0866 17.2004 37.0743 17.2497 37.0743 17.2867C36.9141 17.262 36.7662 17.2127 36.6307 17.1511C36.6307 17.1511 36.6061 17.1511 36.6307 17.1511Z" fill="black"/>
<path d="M32.959 17.3237C32.959 17.2374 32.959 17.1512 32.959 17.0649C32.959 16.9417 32.959 16.8185 32.959 16.6953C32.959 16.3503 32.996 15.9683 33.1069 15.5617C33.2054 15.1551 33.3902 14.6993 33.7106 14.2803C34.0186 13.8614 34.4745 13.5041 34.9181 13.307C35.3616 13.1098 35.7559 13.0359 36.0886 12.9989C36.4212 12.9743 36.6923 12.9989 36.9264 13.0236C37.3823 13.0852 37.6903 13.1838 37.8998 13.2577C38.0107 13.2946 38.0846 13.3316 38.1585 13.3563C38.2325 13.3932 38.2694 13.4055 38.2694 13.4055C39.3044 13.8614 39.7726 15.0566 39.3167 16.0916C38.9224 16.9787 37.9737 17.4469 37.0619 17.2744C37.0619 17.2374 37.0619 17.1881 37.0743 17.1512C37.0743 17.0896 37.0866 17.028 37.0866 16.9787V16.9294V16.8678V16.8555V16.8185C37.0866 16.7446 37.0989 16.6953 37.0989 16.6583C37.1112 16.6337 37.1112 16.609 37.1112 16.6214C37.1112 16.6214 37.0989 16.6337 37.0989 16.6583C37.0866 16.683 37.0619 16.7322 37.025 16.7815C36.9511 16.8924 36.7909 17.0156 36.6677 17.0649C36.5814 17.1019 36.5198 17.1142 36.4828 17.1265C36.4705 17.1265 36.4459 17.1265 36.4336 17.1265C36.4089 17.1265 36.4089 17.1388 36.4828 17.1265C36.5198 17.1265 36.5691 17.1389 36.5937 17.1512C36.6184 17.1512 36.6307 17.1512 36.6307 17.1512C36.6184 17.1512 36.6184 17.1512 36.6184 17.1388C36.6061 17.1388 36.6184 17.1388 36.6184 17.1388C36.7662 17.2004 36.9141 17.2497 37.0619 17.2744C37.0496 17.3853 37.0373 17.5085 37.0373 17.6194C36.9757 18.1861 36.8771 18.7159 36.7786 19.2704C36.7293 19.5291 36.68 19.8002 36.6307 20.059L32.8851 18.2724C32.922 17.952 32.9467 17.6194 32.959 17.3237Z" fill="#C06C09"/>
<path d="M31.1232 31.0618C31.1232 31.0495 31.2957 29.9282 31.5421 28.2279C31.6653 27.3777 31.8132 26.3921 31.9733 25.3324C32.1212 24.2728 32.2814 23.1516 32.4415 22.0181C32.6017 20.8968 32.7373 19.7756 32.8358 18.7406C32.8481 18.5928 32.8605 18.4449 32.8728 18.2971L36.6184 20.0836C36.4582 20.9338 36.2611 21.8086 36.0763 22.6711C35.8299 23.8046 35.029 24.0387 34.7702 25.0983C34.5115 26.1456 34.2651 27.1313 34.0433 27.9692C33.8215 28.807 33.6367 29.497 33.5012 29.9898C33.3656 30.4827 33.2917 30.7537 33.2917 30.7537C33.1069 31.4191 32.9714 32.7498 32.2691 32.6389C31.5298 32.528 31.0123 31.8134 31.1232 31.0618Z" fill="#EBC59B"/>
<path d="M47.1406 53.8066C47.0421 53.3261 47.2146 52.6361 47.2269 51.7983C47.2269 50.9604 46.9681 49.9871 46.9681 48.9398C46.9681 47.8925 46.9928 46.7836 47.0051 45.6624C47.0174 45.1079 47.0297 43.1488 47.0421 42.6067C47.0544 42.0522 47.0667 41.5224 47.079 40.9926C47.1037 39.9453 47.1406 38.972 47.1776 38.1341C47.2392 36.4584 47.3131 35.3372 47.3131 35.3372C47.3254 35.0908 47.3378 34.3269 47.3008 34.2283C47.3008 34.2283 47.3008 32.9346 47.3008 32.6512L47.1283 30.4827H35.9284L35.8175 34.7458C35.7928 34.9429 35.7805 35.1401 35.7928 35.3372C35.7928 35.3372 35.7928 35.3865 35.8052 35.4728C35.8052 35.8177 35.8052 35.904 35.8298 35.867C35.8545 36.3475 35.9037 37.1361 35.9407 38.1341C35.9777 38.972 36.0023 39.9453 36.0393 40.9926C36.0516 41.5101 36.0639 42.0522 36.0762 42.6067C36.0886 43.1611 36.1009 45.1079 36.1132 45.6624C36.1255 46.7713 36.1502 47.8925 36.1502 48.9398C36.1502 49.9871 35.8545 50.9604 35.8545 51.7983C35.8545 52.6361 36.0886 53.3261 35.99 53.8066C35.8914 54.2872 35.7805 54.5582 35.7805 54.5582C35.7436 54.6568 35.7189 54.7554 35.6943 54.8663C35.9777 54.5952 36.3596 54.435 36.7662 54.435C37.2714 54.435 37.7766 54.398 38.2817 54.398C38.3803 54.398 38.4912 54.4104 38.5897 54.4227C38.5774 54.3118 38.5651 54.1639 38.5528 54.0038C38.5281 53.5109 38.8238 52.8209 38.984 51.9954C39.1442 51.1699 38.9471 50.2088 39.1072 49.1739C39.2674 48.1389 39.4522 47.0423 39.6247 45.9457C39.7233 45.3913 39.8095 43.4445 39.9081 42.9147C40.0067 42.3726 40.0929 41.8428 40.1792 41.3253C40.364 40.2903 40.4379 39.3293 40.6104 38.5161C40.9554 36.865 41.2511 35.7685 41.2511 35.7685C41.4606 35.3742 41.5099 34.9922 41.4606 34.6349C41.5468 34.9553 41.6824 35.3249 41.9041 35.7685C41.9041 35.7685 42.1998 36.865 42.5448 38.5161C42.7173 39.3416 42.7913 40.3026 42.9761 41.3253C43.0623 41.8428 43.1609 42.3726 43.2471 42.9147C43.3457 43.4569 43.432 45.4036 43.5305 45.9457C43.703 47.0423 43.8878 48.1512 44.048 49.1739C44.2082 50.2088 44.0603 51.1699 44.2082 51.9954C44.3684 52.8209 44.6148 53.5109 44.5901 54.0038C44.5655 54.3488 44.5285 54.5829 44.5162 54.7061C44.6764 54.6445 44.8366 54.6075 45.0214 54.5952C45.7976 54.5336 46.5862 54.5459 47.3624 54.5582C47.3254 54.4843 47.2269 54.2256 47.1406 53.8066Z" fill="#086390"/>
<path d="M48.3112 15.0195C48.3112 13.849 47.3378 12.9126 46.1304 12.9126H44.7134C44.0851 14.0584 42.853 14.847 41.473 14.847C40.093 14.847 38.8732 14.0584 38.2325 12.9126H36.9634C35.756 12.9126 34.7826 13.8613 34.7826 15.0195C34.7826 15.0195 36.1749 17.9027 36.1749 27.5255C36.1749 28.4988 36.1256 28.5358 36.1256 28.5358H46.9805C46.9805 28.5358 46.9805 28.5358 46.9313 27.3283C46.4754 17.6809 48.3112 15.0195 48.3112 15.0195Z" fill="#F4A600"/>
<path d="M35.9408 30.4824H47.153L46.9805 28.548H36.1132L35.9408 30.4824Z" fill="#0072B0"/>
<path d="M44.9106 6.56744C44.6396 7.24511 44.504 7.93509 44.4917 8.62507C44.4301 9.35202 44.159 10.0174 43.7771 10.6334C43.5306 10.7566 43.2965 10.8306 43.0871 10.8675C43.0378 10.4117 42.9516 9.94345 42.816 9.46292C42.508 9.17954 42.1384 8.98239 41.7071 8.89614V9.40131C41.9905 9.46292 42.2492 9.57381 42.4834 9.73399C42.6928 10.1159 42.8037 10.5349 42.8653 10.9538C42.4957 11.2618 41.8303 11.385 41.4361 11.422C41.0664 11.385 40.5489 11.2618 40.1793 10.9538C40.2532 10.5349 40.3518 10.1159 40.5612 9.73399C40.7954 9.57381 41.0541 9.46292 41.3375 9.40131V8.89614C40.9062 8.98239 40.5489 9.17954 40.2286 9.46292C40.093 9.94345 40.0068 10.4117 39.9575 10.8675C39.7357 10.8306 39.514 10.7566 39.2675 10.6334C38.8856 10.0174 38.6268 9.35202 38.5529 8.62507C38.5406 7.93509 38.405 7.24511 38.134 6.56744L37.7027 6.70298L38.1709 8.77294C38.3311 9.47525 38.6515 10.1406 39.095 10.769C39.3538 10.9045 39.5632 11.0893 39.7234 11.3357C40.1177 11.8409 40.7584 12.112 41.3375 12.2475C41.3744 12.2598 41.3991 12.2598 41.4361 12.2721C41.4607 12.2721 41.4977 12.2598 41.5223 12.2598C42.126 12.1243 42.9269 11.8532 43.3089 11.3481C43.469 11.1016 43.6785 10.9168 43.9372 10.7813C44.3931 10.1529 44.7135 9.48756 44.8613 8.78526L45.3295 6.71531L44.9106 6.56744Z" fill="black"/>
<path d="M37.7397 6.70299L38.3065 6.97405C38.3065 6.97405 38.0477 6.19782 38.1586 5.85282C38.2572 5.50783 38.4666 3.69663 39.6864 3.99234C40.8939 4.28804 41.7564 4.04163 41.7564 4.04163L41.818 2.29201C41.8057 2.29201 36.6308 1.24471 37.7397 6.70299Z" fill="black"/>
<path d="M45.3418 6.72745L44.7751 6.99852C44.7751 6.99852 45.0338 6.22228 44.9229 5.87729C44.8243 5.5323 44.6149 3.72109 43.4074 4.0168C42.1999 4.31251 41.3375 4.06608 41.3375 4.06608L41.2759 2.31648C41.2635 2.30416 46.4507 1.26918 45.3418 6.72745Z" fill="black"/>
<path d="M38.9102 53.782C38.9102 52.8456 38.1463 52.0817 37.2099 52.0817C36.2735 52.0817 35.5095 52.8456 35.5095 53.782L35.3863 54.743C35.3863 55.6794 36.2735 55.2975 37.2099 55.2975C38.1463 55.2975 39.0334 55.6918 39.0334 54.743L38.9102 53.782Z" fill="#005787"/>
<path d="M47.6089 53.782C47.6089 52.8456 46.845 52.0817 45.9086 52.0817C44.9722 52.0817 44.2083 52.8456 44.2083 53.782L44.0851 54.743C44.0851 55.6794 44.9722 55.2975 45.9086 55.2975C46.845 55.2975 47.7322 55.6918 47.7322 54.743L47.6089 53.782Z" fill="#005787"/>
<path d="M38.9102 53.5357C38.9102 52.5992 38.1463 51.8353 37.2099 51.8353C36.2735 51.8353 35.5095 52.5992 35.5095 53.5357L35.3863 54.4967C35.3863 55.4331 36.2735 55.0511 37.2099 55.0511C38.1463 55.0511 39.0334 55.4454 39.0334 54.4967L38.9102 53.5357Z" fill="black"/>
<path d="M47.6089 53.5357C47.6089 52.5992 46.845 51.8353 45.9086 51.8353C44.9722 51.8353 44.2083 52.5992 44.2083 53.5357L44.0851 54.4967C44.0851 55.4331 44.9722 55.0511 45.9086 55.0511C46.845 55.0511 47.7322 55.4454 47.7322 54.4967L47.6089 53.5357Z" fill="black"/>
<path d="M39.4523 1.94685C39.4523 1.94685 36.9511 3.09273 37.6534 6.51801C37.6534 6.51801 38.8362 5.12571 41.5592 5.12571V1.54025L39.4523 1.94685Z" fill="#0083CB"/>
<path d="M43.6414 1.9469L41.5468 1.5403V5.12576C44.2698 5.12576 45.4403 6.51806 45.4403 6.51806C46.1426 3.09277 43.6414 1.9469 43.6414 1.9469Z" fill="#0072B0"/>
<path d="M37.641 6.51802C37.5794 6.20999 37.5424 5.44609 37.5301 5.17502C37.5055 5.58162 37.5424 6.03749 37.641 6.5673C37.641 6.5673 38.8238 5.64321 41.5468 5.64321V5.12572C38.8238 5.12572 37.641 6.51802 37.641 6.51802Z" fill="#005887"/>
<path d="M45.4404 6.51797C45.4404 6.51797 44.2575 5.12567 41.5469 5.12567V5.64316C44.2699 5.64316 45.4404 6.56724 45.4404 6.56724C45.5512 6.03743 45.5759 5.58156 45.5513 5.17497C45.5389 5.44603 45.502 6.20994 45.4404 6.51797Z" fill="#005887"/>
<path d="M45.8346 28.5483H37.2591L38.4912 20.3178H44.5902L45.8346 28.5483Z" fill="#0083CB"/>
<path d="M44.5656 20.8228L43.4074 20.6379L44.5902 12.9126H45.773L44.5656 20.8228Z" fill="#0083CB"/>
<path d="M38.5282 20.8228L39.6864 20.6379L38.5036 12.9126H37.3207L38.5282 20.8228Z" fill="#0083CB"/>
<path d="M39.2552 20.8228C39.2552 20.9337 39.1566 21.0323 39.0457 21.0323C38.9348 21.0323 38.8363 20.9337 38.8363 20.8228C38.8363 20.7119 38.9348 20.6133 39.0457 20.6133C39.1566 20.6133 39.2552 20.6996 39.2552 20.8228Z" fill="white"/>
<path d="M44.1467 20.8228C44.1467 20.9337 44.0481 21.0323 43.9372 21.0323C43.8263 21.0323 43.7278 20.9337 43.7278 20.8228C43.7278 20.7119 43.8263 20.6133 43.9372 20.6133C44.0481 20.6133 44.1467 20.6996 44.1467 20.8228Z" fill="white"/>
<defs>
<linearGradient id="paint0_linear" x1="61.3658" y1="46.2916" x2="61.3658" y2="45.4347" gradientUnits="userSpaceOnUse">
<stop stop-color="#5F5A5E"/>
<stop offset="0.2754" stop-color="#262529"/>
<stop offset="0.4762" stop-color="#29282C"/>
<stop offset="0.6286" stop-color="#333135"/>
<stop offset="0.7647" stop-color="#434144"/>
<stop offset="0.8093" stop-color="#4A484B"/>
</linearGradient>
<linearGradient id="paint1_linear" x1="44.6877" y1="27.1036" x2="44.6877" y2="28.8735" gradientUnits="userSpaceOnUse">
<stop stop-color="#5F5A5E"/>
<stop offset="0.2754"/>
<stop offset="0.7541"/>
<stop offset="0.8093"/>
</linearGradient>
</defs>
</svg>
