<svg width="317" height="120" viewBox="0 0 317 120" fill="none" xmlns="http://www.w3.org/2000/svg">
<path d="M66.2247 67.585C68.6396 67.7041 75.3063 64.7619 75.1703 64.4898C74.8981 63.9116 73.4696 62.6701 71.6498 63.0272C72.8913 62.347 73.5036 61.5646 74.2009 61.3606C74.8981 61.1565 76.9049 61.0714 76.8709 60.4422C76.8369 59.8129 74.456 58.3674 72.058 59.8299C69.66 61.2925 64.439 63.5884 64.439 63.5884L66.2247 67.585Z" fill="#C14E00"/>
<path d="M43.7757 54.6768C46.2757 56.3265 51.3948 63.9795 55.3574 65.3741C56.5308 65.7993 67.3131 62.3469 67.3131 62.3469L67.8233 69.3027C67.8233 69.3027 56.7519 72.9591 54.575 72.4489C52.3982 71.9557 37.1431 64.8129 37.1431 64.8129L43.7757 54.6768Z" fill="#BFB8B8"/>
<path d="M89.3198 16.1735L90.9695 15.7653L98.1974 45.3912L96.5477 45.7823L89.3198 16.1735Z" fill="#232121"/>
<path d="M279.83 61.6157C271.293 58.2994 230.493 52.6701 230.493 52.6701L191.871 29.1497C155.816 18.2483 116.446 26.6667 110.051 29.7449C106.939 31.2415 92.5851 46.4116 85.4763 52.1089C85.4763 52.1089 72.262 54.1327 70.6974 65.4252C69.9661 70.6803 69.2688 81.6667 67.381 90.3402C64.5409 103.384 75.9184 103.146 75.9184 103.146C75.9184 103.146 78.0613 103.163 81.8878 103.214C81.7008 102.041 81.5987 100.816 81.5987 99.5919C81.5987 86.8198 91.9559 76.4626 104.728 76.4626C117.5 76.4626 127.84 86.8198 127.84 99.5919C127.84 100.986 127.704 102.347 127.466 103.691C159.32 103.571 183.35 103.708 217.177 103.929C216.82 102.313 216.82 101.31 216.82 99.5919C216.82 86.8198 227.177 76.4626 239.949 76.4626C252.721 76.4626 263.078 86.8198 263.078 99.5919C263.078 101.378 262.874 103.129 262.483 104.796C275.238 104.813 280.68 104.745 281.82 104.575C287.993 103.622 290.953 98.2824 291.905 93.5375C293.35 76.8878 279.83 61.6157 279.83 61.6157ZM101.02 54.6939C101.02 54.6939 112.177 39.1327 115.68 36.9048C123.401 31.9898 149.83 32.415 149.83 32.415L154.405 54.7619L101.02 54.6939ZM161.395 54.779C161.395 54.779 157.585 39.6429 155.969 32.1769C155.884 31.7517 173.027 32.1939 186.072 35.4762C193.265 37.279 196.99 40.5102 200.952 42.9592C217.585 53.1803 217.755 54.6599 217.755 54.6599L161.395 54.779Z" fill="#BFB8B8"/>
<path d="M85.051 100.799C85.051 90.187 93.6565 81.5816 104.252 81.5816C114.864 81.5816 123.469 90.187 123.469 100.799C123.469 111.412 114.864 120 104.252 120C93.6565 120 85.051 111.412 85.051 100.799Z" fill="#232121"/>
<path d="M90.7993 100.799C90.7993 93.3673 96.8197 87.3469 104.269 87.3469C111.701 87.3469 117.721 93.3673 117.721 100.799C117.721 108.231 111.701 114.252 104.269 114.252C96.8197 114.252 90.7993 108.231 90.7993 100.799ZM92.8231 100.799C92.8401 107.109 97.9422 112.228 104.269 112.245C110.578 112.228 115.697 107.126 115.714 100.799C115.697 94.4897 110.595 89.3707 104.269 89.3537C97.9422 89.3707 92.8231 94.4727 92.8231 100.799Z" fill="#BFB8B8"/>
<path d="M116.259 103.469C111.378 103.18 107.738 102.092 107.738 100.799C107.738 99.5068 111.378 98.4184 116.259 98.1292C115.952 96.7347 115.391 95.4081 114.626 94.2007C110.969 97.449 107.636 99.2517 106.718 98.3333C105.799 97.4149 107.602 94.0816 110.85 90.4252C110.068 89.932 109.235 89.5068 108.316 89.2007C107.857 89.0476 107.381 88.9116 106.922 88.8095C106.633 93.6905 105.544 97.3299 104.252 97.3299C102.959 97.3299 101.871 93.7075 101.582 88.8095C100.187 89.1156 98.8606 89.6769 97.6531 90.4422C100.901 94.0986 102.704 97.432 101.786 98.3503C100.867 99.2687 97.5341 97.466 93.8776 94.2177C93.3844 95 92.9592 95.8333 92.6531 96.7517C92.4831 97.2109 92.364 97.6871 92.262 98.1462C97.1429 98.4354 100.782 99.5238 100.782 100.816C100.782 102.109 97.1599 103.197 92.262 103.486C92.5681 104.881 93.1293 106.207 93.8946 107.415C97.5511 104.167 100.884 102.364 101.803 103.282C102.721 104.201 100.918 107.534 97.6701 111.19C98.4524 111.684 99.2858 112.109 100.204 112.415C100.663 112.585 101.14 112.704 101.599 112.806C101.888 107.925 102.976 104.286 104.269 104.286C105.561 104.286 106.65 107.925 106.939 112.806C108.333 112.5 109.66 111.939 110.867 111.173C107.619 107.517 105.816 104.184 106.735 103.265C107.653 102.347 110.986 104.15 114.643 107.398C115.136 106.616 115.544 105.782 115.867 104.864C116.02 104.405 116.157 103.929 116.259 103.469Z" fill="#BFB8B8"/>
<path d="M220.765 100.799C220.765 90.187 229.371 81.5816 239.966 81.5816C250.578 81.5816 259.184 90.187 259.184 100.799C259.184 111.412 250.578 120 239.966 120C229.371 120 220.765 111.412 220.765 100.799Z" fill="#232121"/>
<path d="M226.514 100.799C226.514 93.3673 232.534 87.3298 239.966 87.3298C247.398 87.3298 253.418 93.3502 253.418 100.799C253.418 108.231 247.398 114.252 239.966 114.252C232.534 114.252 226.514 108.231 226.514 100.799ZM228.537 100.799C228.554 107.109 233.657 112.228 239.983 112.245C246.31 112.228 251.412 107.126 251.429 100.799C251.412 94.4727 246.31 89.3707 239.983 89.3536C233.657 89.3707 228.537 94.4727 228.537 100.799Z" fill="#BFB8B8"/>
<path d="M251.973 103.469C247.092 103.18 243.452 102.092 243.452 100.799C243.452 99.5068 247.075 98.4184 251.973 98.1292C251.667 96.7347 251.106 95.4081 250.34 94.2007C246.684 97.449 243.35 99.2517 242.432 98.3333C241.514 97.4149 243.316 94.0816 246.565 90.4252C245.782 89.932 244.949 89.5068 244.031 89.2007C243.572 89.0476 243.095 88.9116 242.636 88.8095C242.347 93.6905 241.259 97.3299 239.966 97.3299C238.674 97.3299 237.585 93.7075 237.296 88.8095C235.901 89.1156 234.575 89.6769 233.367 90.4422C236.616 94.0986 238.418 97.432 237.5 98.3503C236.582 99.2687 233.248 97.466 229.592 94.2177C229.099 95 228.674 95.8333 228.367 96.7517C228.214 97.2109 228.078 97.6871 227.976 98.1462C232.857 98.4354 236.497 99.5238 236.497 100.816C236.497 102.109 232.857 103.197 227.976 103.486C228.282 104.881 228.844 106.207 229.609 107.415C233.265 104.167 236.599 102.364 237.517 103.282C238.436 104.201 236.633 107.534 233.384 111.19C234.167 111.684 235 112.109 235.918 112.415C236.378 112.585 236.854 112.704 237.313 112.806C237.602 107.925 238.691 104.286 239.983 104.286C241.276 104.286 242.364 107.925 242.653 112.806C244.048 112.5 245.374 111.939 246.582 111.173C243.333 107.517 241.531 104.184 242.449 103.265C243.367 102.347 246.701 104.15 250.357 107.398C250.85 106.616 251.276 105.782 251.582 104.864C251.735 104.405 251.871 103.929 251.973 103.469Z" fill="#BFB8B8"/>
<path d="M75.0511 57.415C77.3641 57.5851 76.5818 57.466 79.3199 57.5851L84.1668 57.7551C86.9049 57.8742 87.177 59.0477 84.762 60.3402L72.6022 66.7858C70.1872 68.0953 70.1532 67.8062 70.5273 65.5103L71.4457 61.1735C71.8539 59.0137 72.8913 57.2449 75.0511 57.415Z" fill="#D8D8D8"/>
<path d="M84.813 87.8231H67.9082C67.7381 88.6224 67.5511 89.4557 67.364 90.3401C66.1905 95.7142 67.432 98.8265 69.3028 100.629H81.6327C81.6157 100.272 81.5987 99.9319 81.5987 99.5748C81.5987 95.2891 82.7722 91.2754 84.813 87.8231Z" fill="#D8D8D8"/>
<path d="M220.051 87.8231H124.609C126.65 91.2754 127.823 95.2891 127.823 99.5918C127.823 99.9489 127.789 100.289 127.772 100.646H216.803C216.803 100.323 216.803 99.9829 216.803 99.5918C216.82 95.2891 217.993 91.2754 220.051 87.8231Z" fill="#D8D8D8"/>
<path d="M291.701 87.8231H259.847C261.888 91.2754 263.061 95.2891 263.061 99.5918C263.061 99.9489 263.044 100.289 263.027 100.646H288.656C290.374 98.5714 291.395 95.9863 291.871 93.5544C292.109 91.5305 292.007 89.6088 291.701 87.8231Z" fill="#D8D8D8"/>
<path d="M176.684 61.4795C176.684 62.2108 176.089 62.789 175.374 62.789H164.847C164.116 62.789 163.538 62.1938 163.538 61.4795C163.538 60.7482 164.133 60.17 164.847 60.17H175.374C176.106 60.17 176.684 60.7652 176.684 61.4795Z" fill="#D8D8D8"/>
<path d="M223.214 55.17C223.214 58.6564 220.068 61.4966 216.191 61.4966C214.269 61.4966 214.082 58.6564 214.082 55.17C214.082 51.6836 214.252 48.8435 216.191 48.8435C220.068 48.8435 223.214 51.6836 223.214 55.17Z" fill="#D8D8D8"/>
<path d="M284.915 69.7789C284.915 69.7789 274.456 69.2857 270.425 68.1972C265.561 66.8877 262.398 64.7789 265.816 63.7245C269.235 62.67 280.034 64.2517 280.034 64.2517L284.915 69.7789Z" fill="#D8D8D8"/>
<path d="M272.976 58.2823L230.493 51.9558C227.857 55.1191 231.191 57.9252 231.191 57.9252L279.473 61.6157L272.976 58.2823Z" fill="#232121"/>
<path d="M226.888 51.3435L261.395 0.527211C261.395 0.527211 267.194 -1.58163 266.14 2.63605C265.085 6.85374 230.323 60.034 230.323 60.034L226.888 51.3435Z" fill="#BFB8B8"/>
<path d="M110.901 30.2552C102.789 18.2824 87.5681 4.65993 65.4083 7.44905C64.9321 8.87762 67.7382 11.8708 69.0647 12.0239C70.6634 12.1939 77.6192 12.6361 84.1838 14.847C93.7246 18.0443 99.813 26.1225 104.167 36.6837C106.803 34.932 110.901 30.2552 110.901 30.2552Z" fill="#BFB8B8"/>
<path d="M308.725 103.809C308.129 105.493 308.555 107.313 308.793 109.609C309.031 111.888 309.558 113.605 307.262 114.133C304.966 114.643 296.446 114.711 296.446 114.711C296.446 114.711 291.888 113.69 296.633 111.633C300.323 110.034 303.061 108.027 302.738 103.69C302.687 102.823 308.725 103.809 308.725 103.809Z" fill="#383D51"/>
<path d="M297.279 49.0305C297.483 57.4659 298.214 80.9523 298.35 82.1598C299.711 93.4693 301.055 109.048 301.055 109.048L308.01 108.877C308.01 108.877 310.731 89.3877 308.231 81.2924C307.466 78.8264 311.106 54.7278 311.106 54.7278L297.279 49.0305Z" fill="#3357BC"/>
<path d="M315.459 108.197C315.681 110.102 316.701 112.653 316.106 115.272C315.902 116.173 314.235 116.565 312.891 116.888C312.33 117.024 310.391 118.333 309.405 118.707C305.783 120.051 304.048 119.065 303.385 118.656C302.704 118.248 302.5 117.245 304.116 115.714C305.493 114.405 307.483 113.69 308.027 112.449C308.572 111.224 308.283 107.364 308.283 107.364L315.459 108.197Z" fill="#232121"/>
<path d="M297.976 47.585C298.18 56.0204 299.779 65.5782 303.112 82.8061C304.218 88.5203 307.483 113.146 307.483 113.146L316.48 113.401C316.48 113.401 317.466 97.1598 314.575 82.9421C314.252 81.3605 314.932 67.4829 315.748 56.6156C316.225 50.187 312.194 43.1632 312.194 43.1632L297.976 47.585Z" fill="#4D87DB"/>
<path d="M313.929 48.1972L298.265 81.2924C298.265 81.2924 297.211 58.1122 297.738 55.6632C298.265 53.1972 313.929 48.1972 313.929 48.1972Z" fill="url(#paint0_linear)"/>
<path d="M251.956 52.1769C252.517 52.6531 255.374 51.7347 257.313 51.0885C258.112 50.8164 264.49 51.3266 264.796 51.1735C265.289 50.9184 263.095 47.9762 263.095 47.9762C263.095 47.9762 259.66 48.3164 256.871 48.0102C255 47.7891 253.537 46.8368 253.197 46.9218C252.347 47.0919 249.201 48.4864 249.201 48.4864L251.956 52.1769Z" fill="#DDAC9E"/>
<path d="M263.129 46.1394C261.565 46.0884 256.735 47.9932 255.868 47.4149C255.017 46.8367 254.15 46.7006 252.721 46.5646C251.514 46.4455 250.85 44.5748 250.578 44.8979C250.306 45.2381 250.119 45.2891 250.646 46.2075C251.089 46.9728 251.684 47.534 251.684 47.534C251.684 47.534 255.782 48.7585 256.157 48.8435C256.531 48.9285 263.112 47.9932 263.402 48.0612C263.691 48.1122 263.129 46.1394 263.129 46.1394Z" fill="#E8C8BA"/>
<path d="M278.691 32.3469C276.514 34.0136 272.908 42.5 269.303 43.8435C265.936 45.085 257.585 47.2619 257.585 47.2619L260.612 52.2619C260.612 52.2619 264.609 52.0748 267.16 51.6837C269.711 51.2925 272.313 50.5952 274.626 49.3367C276.446 48.3503 284.728 41.6326 284.524 39.2517C284.32 36.8877 278.691 32.3469 278.691 32.3469Z" fill="#4D87DB"/>
<path d="M281.395 28.1293C281.395 28.1293 281.395 28.1293 278.861 27.8061C277.092 27.5851 275.885 26.7687 274.847 25.9354C274.031 23.6395 272.16 20.9524 268.3 18.1803C262.67 14.1327 256.786 22.6871 257.976 27.1939C257.925 27.6361 257.721 28.4354 257.789 28.6225C258.538 30.6293 260.613 31.5987 262.874 33.2313C262.908 33.2653 262.959 33.2993 263.01 33.3333C263.3 33.8946 264.286 35.068 264.575 35.9524C264.626 36.0204 264.694 36.0544 264.745 36.0884C265.136 36.3606 265.766 35.7653 266.446 35.3231C266.514 35.3572 266.565 35.3742 266.616 35.3912C268.078 36.1055 269.286 36.5136 270.17 36.2925C270.289 36.2755 270.408 36.2755 270.527 36.2585C271.667 35.9524 271.922 35.6973 273.01 34.4218C274.745 35.085 279.099 37.381 279.099 37.381L279.575 33.6905L279.354 33.6735L281.395 28.1293Z" fill="#DDAC9E"/>
<path d="M265 16.2416C263.436 16.0885 261.582 16.0885 259.473 18.7586C257.415 21.3436 256.412 23.3334 256.82 26.4116C257.024 27.9933 258.521 28.3164 258.521 28.3164C258.521 28.3164 258.963 26.0035 259.626 25.5443C260.289 25.0681 260.391 26.8368 262.194 26.9388C263.708 27.0239 265.782 27.1939 265.782 27.1939C265.782 27.1939 268.861 25.3572 269.762 25.9865C270.663 26.6327 274.745 25.6803 274.745 25.6803C274.745 25.6803 274.626 22.8402 272.092 19.6939C268.35 15.0341 265.374 16.2926 265 16.2416Z" fill="#300901"/>
<path d="M267.279 26.8028C267.347 26.0715 267.092 24.3878 268.027 24.4049C268.963 24.4389 270.833 26.1906 270.527 27.8062C270.221 29.3878 267.279 26.8028 267.279 26.8028Z" fill="#DDAC9E"/>
<path d="M254.286 31.6157C253.061 33.0443 253.844 34.1498 255.595 34.1498C257.347 34.1328 257.483 33.2654 258.248 32.0409C259.456 30.1191 260.17 28.2824 260.17 28.2824L254.286 31.6157Z" fill="#4D87DB"/>
<path d="M273.674 21.3096C272.517 21.8028 264.847 23.5375 264.847 23.5375C264.847 23.5375 262.874 28.5205 261.123 29.5409C259.371 30.5783 255.255 29.898 253.759 32.5171C255.306 29.0477 256.395 27.7722 256.395 27.7722C256.395 27.7722 254.847 24.6429 256.769 20.3742C257.602 18.5375 259.966 16.3096 261.344 15.9354C262.721 15.5613 265.851 14.1497 268.793 16.1225C271.735 18.0783 273.674 21.3096 273.674 21.3096Z" fill="#3357BC"/>
<path d="M268.827 16.1566C271.769 18.1294 273.708 21.3436 273.708 21.3436C272.738 21.7688 267.177 23.0443 265.425 23.4355C264.83 20.7144 263.112 17.262 261.038 16.1055C261.157 16.0545 261.276 16.0035 261.378 15.9695C262.755 15.5953 265.885 14.1838 268.827 16.1566Z" fill="#4D87DB"/>
<path d="M274.218 35.0171L273.776 36.9559L277.024 39.6599L278.078 35.9695L274.218 35.0171Z" fill="#4D87DB"/>
<path d="M277.602 27.9762C281.837 27.347 287.619 26.9558 295.357 31.5987C303.248 36.3436 313.878 40.6463 314.235 48.2824C314.354 50.7994 305.017 56.8878 299.32 57.2449C296.973 57.381 293.673 54.0987 291.241 51.6327C288.793 49.1667 279.66 45.2211 276.582 37.7551C275.323 34.6769 277.602 27.9762 277.602 27.9762Z" fill="#4D87DB"/>
<path d="M276.633 27.1088C276.633 28.5714 274.915 36.5986 274.915 36.5986L279.575 39.8469L280.085 27.3129L276.633 27.1088Z" fill="#3357BC"/>
<path d="M247.364 42.0748L248.249 41.5135L260.221 60.085L259.32 60.6632L247.364 42.0748Z" fill="#232121"/>
<path d="M245.493 40.9864C245.476 40.9014 245.476 40.8163 245.476 40.7483C245.476 39.949 246.055 39.2517 246.871 39.1327C246.956 39.1157 247.041 39.1157 247.109 39.1157C247.908 39.1157 248.606 39.6939 248.725 40.5102L248.487 40.5442L248.725 40.5102C248.742 40.5953 248.742 40.6803 248.742 40.7483C248.742 41.5476 248.163 42.2449 247.347 42.364C247.262 42.381 247.177 42.381 247.109 42.381C246.31 42.381 245.612 41.7857 245.493 40.9864ZM246.939 39.5748C246.361 39.6599 245.936 40.1531 245.936 40.7313C245.936 40.7823 245.935 40.8504 245.953 40.9014C246.038 41.4796 246.531 41.9048 247.109 41.9048C247.177 41.9048 247.228 41.9048 247.279 41.8878C247.857 41.8027 248.282 41.2925 248.282 40.7313C248.282 40.6803 248.282 40.6123 248.265 40.5612C248.18 39.983 247.67 39.5578 247.109 39.5578C247.058 39.5748 247.007 39.5748 246.939 39.5748Z" fill="#232121"/>
<path d="M249.201 48.2822C248.708 48.9115 248.81 49.6768 249.507 49.6428C249.269 50.238 249.847 51.1904 250.476 51.0544C250.221 51.5305 250.799 52.0748 251.395 52.0237C251.582 52.5169 251.922 52.619 252.449 52.4659C253.18 52.2448 254.592 51.8367 254.592 51.2244C254.592 50.5952 252.585 51.4795 252.585 51.4795C252.585 51.4795 254.048 51.0373 254.184 50.3741C254.184 50.3741 254.473 49.7618 253.912 49.8299C253.35 49.8979 251.531 50.289 251.531 50.289C251.531 50.289 253.725 49.4557 253.674 49.2006C253.589 48.7414 253.572 48.3333 250.544 49.2686C252.415 48.6054 252.772 48.3673 252.653 47.8401C252.534 47.3129 249.201 48.2822 249.201 48.2822Z" fill="#E8C8BA"/>
<path d="M291.327 51.6156C293.759 54.0816 297.058 57.3809 299.405 57.2279C301.225 57.1088 305.612 55.4081 307.738 54.4217C307.823 53.8775 307.211 52.1598 307.041 51.7006C304.32 44.1496 286.412 36.5136 282.551 34.4047L276.922 38.2653C280.204 45.3911 288.946 49.2006 291.327 51.6156Z" fill="#3357BC"/>
<path d="M252.5 58.9456C252.721 58.5714 256.242 57.534 256.429 57.432C256.582 57.3469 257.84 56.7177 258.827 56.1734C257.738 55.9353 256.14 55.4081 256.633 55.119C257.993 54.9319 260.425 55.3401 261.14 55.4762L266.769 55.5102C264.524 58.2823 267.279 57.653 265.391 58.9626C265.017 59.2177 259.167 60.6973 258.64 60.7823C258.112 60.8673 254.847 61.5816 254.524 61.0884C254.405 60.9013 256.191 60.5952 256.922 60.4932C256.004 60.6292 253.265 60.9864 253.367 60.6292C253.47 60.2381 256.803 59.4728 256.803 59.4728C256.803 59.4728 254.456 60 253.572 60.034C252.517 60.068 252.5 59.7279 253.197 59.5748C253.776 59.4388 256.514 58.6054 256.514 58.6054C256.514 58.6054 255.272 58.9115 254.065 59.1666C252.738 59.4217 252.279 59.3197 252.5 58.9456Z" fill="#E8C8BA"/>
<path d="M285.731 30.5272C285.731 30.5272 286.956 33.2142 286.616 35.4931C285.765 41.2074 282.33 50.17 279.966 52.2789C275.612 56.1394 270.221 57.9421 266.14 58.9965C263.912 59.5748 262.126 54.7959 262.126 54.7959C262.126 54.7959 273.555 46.8197 274.303 45.5612C276.412 42.0067 277.721 32.653 278.861 30.9693C280.204 28.9795 283.333 28.0952 285.731 30.5272Z" fill="#3357BC"/>
<path d="M44.3197 57.9932C46.5476 56.3265 49.3197 53.4694 49.3197 53.4694L45.9013 48.8945C45.9013 48.8945 38.5884 53.2313 37.8231 53.9115C37.0068 54.5918 44.3197 57.9932 44.3197 57.9932Z" fill="#DDAC9E"/>
<path d="M55.7143 40.136C53.7245 35.9523 43.0442 33.9285 42.0238 40.9183C40.1531 53.6394 48.0952 55.323 48.0952 55.323C50.7653 55.255 51.4456 55.5611 53.3673 54.7958C54.3027 54.4217 55.119 53.0441 55.6973 51.2244C56.5306 51.0373 57.432 50.7312 57.3299 50.136C56.9048 49.3196 56.5986 48.6564 56.3946 48.0611C56.7857 45.204 56.6497 42.0917 55.7143 40.136Z" fill="#E8C8BA"/>
<path d="M50.0001 36.9728C46.4627 36.2585 42.4831 36.8537 41.8878 40.9524C40.0171 53.6734 47.9593 55.3571 47.9593 55.3571C48.2654 55.3571 50.8674 55.3401 51.1225 55.3401C46.0715 52.2449 48.7076 41.9898 50.0001 36.9728Z" fill="#DDAC9E"/>
<path d="M42.9252 37.2448C43.8776 36.0203 46.1905 34.5918 49.5239 34.9149C52.7722 35.238 53.8266 36.0033 55.7483 38.4013C56.7347 39.6258 56.4626 42.0408 56.4626 42.0408C56.4626 42.0408 55.2381 41.6836 54.4388 41.8197C53.6395 41.9557 52.6361 41.4285 51.4796 42.772C50.4932 43.9115 50.1361 45.3061 50.1361 45.3061C50.1361 45.3061 46.7177 46.2244 46.5477 47.2959C46.3946 48.3673 42.466 51.0714 42.466 51.0714C42.466 51.0714 40.3572 47.3129 40 44.8129C39.1497 38.9795 42.7041 37.5339 42.9252 37.2448Z" fill="#300901"/>
<path d="M48.3503 45.9694C47.8741 45.4252 47.517 44.6088 46.7857 45.1701C46.0544 45.7313 44.983 48.7925 46.1734 49.8809C47.3469 50.9694 48.3503 45.9694 48.3503 45.9694Z" fill="#DDAC9E"/>
<path d="M51.5474 42.7891C52.7039 41.4285 53.7243 41.9727 54.5236 41.8367C55.3229 41.7006 56.5304 42.0578 56.5304 42.0578C56.5304 42.0578 56.8025 39.6428 55.8161 38.4183C53.8943 36.0204 53.2311 35.3741 49.9998 35.051C48.6903 34.9319 48.6052 40.4421 49.5746 45.4761C50.493 45.085 50.2039 45.3231 50.2039 45.3231C50.2039 45.3231 50.578 43.9285 51.5474 42.7891Z" fill="#662619"/>
<path d="M0.867468 101.939C1.63277 100.238 10.4763 99.0476 21.3267 99.2347C31.7858 99.4217 40.4253 100.833 41.7688 102.466C42.4661 102.925 42.9253 103.758 42.9423 104.694L43.0613 112.041C43.0784 113.282 42.5681 114.15 41.2416 114.694C38.7416 115.952 30.8845 117.211 21.7688 117.041C12.6532 116.888 4.79604 115.034 2.02393 113.861C1.03754 113.469 0.136176 112.534 0.119169 111.292L0.000121186 103.963C-0.0168856 103.129 0.32325 102.415 0.867468 101.939Z" fill="#383D51"/>
<path d="M2.04094 113.878C1.05454 113.486 0.153182 112.551 0.136176 111.31L0.000121187 103.963C-0.0168856 103.129 0.32325 102.415 0.867468 101.956C1.63277 100.255 10.4763 99.0646 21.3267 99.2517C21.4797 99.2517 21.6328 99.2687 21.7858 99.2687L22.092 117.092C21.9899 117.092 21.8879 117.092 21.7858 117.092C12.6702 116.905 4.81305 115.051 2.04094 113.878Z" fill="#232121"/>
<path d="M3.29942 102.534C3.31643 103.792 11.4627 104.949 21.4967 105.136C31.5307 105.306 39.626 104.439 39.6089 103.18C39.5919 101.922 31.4457 100.748 21.4117 100.578C11.3777 100.408 3.26541 101.275 3.29942 102.534Z" fill="#383D51"/>
<path d="M6.95584 102.789C6.97285 103.656 13.4695 104.473 21.4797 104.609C29.4729 104.745 35.9524 104.167 35.9354 103.299C35.9184 102.432 29.4218 101.616 21.4116 101.479C13.4184 101.326 6.93884 101.922 6.95584 102.789Z" fill="#BFB8B8"/>
<path d="M1.24149 89.1836C2.0068 87.4829 10.8503 86.2925 21.7007 86.4795C32.1599 86.6666 40.7993 88.0782 42.1429 89.7278C42.8401 90.187 43.2993 91.0204 43.3163 91.9557L43.4354 99.3027C43.4524 100.544 42.9422 101.395 41.6156 101.956C39.1156 103.214 31.2585 104.473 22.1429 104.303C13.0272 104.15 5.17006 102.296 2.39795 101.122C1.41156 100.731 0.510199 99.7959 0.493192 98.5544L0.374145 91.2074C0.357138 90.3741 0.697274 89.6598 1.24149 89.1836Z" fill="#383D51"/>
<path d="M2.41504 101.122C1.42865 100.731 0.527289 99.7959 0.510282 98.5544L0.391234 91.2075C0.374228 90.3741 0.714364 89.6598 1.25858 89.2007C2.02389 87.5 10.8674 86.3095 21.7178 86.4966C21.8708 86.4966 22.0239 86.5136 22.177 86.5136L22.4831 104.337C22.381 104.337 22.279 104.337 22.177 104.337C13.0443 104.15 5.18715 102.296 2.41504 101.122Z" fill="#232121"/>
<path d="M3.67345 89.7788C3.69045 91.0373 11.8367 92.1938 21.8707 92.3809C31.9047 92.5509 40 91.6836 39.983 90.4251C39.966 89.1666 31.8197 87.9931 21.7857 87.823C11.7517 87.653 3.63943 88.5203 3.67345 89.7788Z" fill="#383D51"/>
<path d="M7.32987 90.0339C7.34687 90.9012 13.8435 91.7175 21.8537 91.8536C29.8639 91.9896 36.3265 91.4114 36.3265 90.5441C36.3095 89.6767 29.8129 88.8604 21.8027 88.7243C13.7925 88.5713 7.31286 89.1665 7.32987 90.0339Z" fill="#BFB8B8"/>
<path d="M41.2416 109.218C40.9355 112.16 40.9525 115.884 43.0613 115.714C45.1702 115.561 45.8675 114.167 48.8096 114.49C51.7518 114.796 60.3232 115.748 60.1702 113.639C60.0171 111.531 58.6566 110.765 57.109 110.68C53.4015 110.459 50.0001 104.983 48.6736 105.459C46.8539 106.139 41.2416 109.218 41.2416 109.218Z" fill="#383D51"/>
<path d="M35.3403 110.884C34.592 113.741 33.6226 117.194 35.7314 117.347C37.8403 117.5 38.1974 117.058 41.0546 117.806C43.9117 118.554 50.9355 119.235 51.5478 117.84C52.3981 115.901 50.4763 114.779 48.9627 114.456C45.3233 113.69 42.6022 108.537 41.2076 108.827C39.3369 109.218 35.3403 110.884 35.3403 110.884Z" fill="#232121"/>
<path d="M35.2892 78.8945C43.7926 81.2414 55.1872 82.4999 57.6872 85.5611C59.881 88.2482 59.2518 90.6632 57.262 97.4659C55.5783 103.265 55.1361 104.405 54.5749 108.945C54.2348 111.616 43.2144 110.493 42.313 109.609C38.5035 105.867 46.6838 93.4013 48.6225 90.255C49.9321 88.1292 33.9286 88.4183 31.6157 89.5407L35.2892 78.8945Z" fill="#3357BC"/>
<path d="M40.7144 51.6836C37.9253 52.772 25.0852 56.3605 22.8743 82.5339C22.8743 82.5339 40.6294 72.4999 42.9423 72.0918C43.2484 68.7584 45.8845 67.9251 44.626 59.1836C44.0477 55.102 40.7144 51.6836 40.7144 51.6836Z" fill="#D8D8D8"/>
<path d="M27.3301 68.6905C27.4321 65.9524 32.3811 58.1803 35.6294 55.7313C40.6124 51.9558 44.4049 56.1905 44.9491 60.9694C45.7314 67.7381 44.4559 70.2891 44.4559 70.2891L43.2314 71.0374C43.2314 71.0374 47.126 59.8469 41.8709 56.2925C40.0852 55.085 34.0138 54.7959 29.745 67.1089C28.4865 70.6803 27.3301 68.6905 27.3301 68.6905Z" fill="#4D87DB"/>
<path d="M28.7078 60.3911C27.7894 62.2108 18.6057 80.7993 18.6057 85.5952C18.6057 90.3911 23.0615 92.585 28.7758 92.3469C34.4901 92.1088 43.1635 91.8537 43.1635 91.8537C43.1635 91.8537 38.5547 99.8639 34.8642 107.381C33.3166 110.544 35.0003 112.347 35.0003 112.347L46.6159 112.211C46.6159 112.211 50.3744 105.697 54.201 93.7925C56.1057 87.8741 55.2214 84.8129 49.7282 83.5884C44.0819 82.3299 37.8234 80.8163 37.8234 80.8163L44.4561 70.085C44.4561 70.085 33.7248 72.602 32.8064 63.2313L30.7486 61.8537L28.7078 60.3911Z" fill="#4D87DB"/>
<path d="M44.4728 70.068C44.4728 70.068 36.8028 71.8367 33.8946 66.7177C30.2721 72.9762 29.932 79.8299 31.0374 80.3741C31.9558 80.8333 36.3776 81.3095 39.83 81.1564C38.3504 80.5102 39.4558 79.3537 39.4558 79.3537L44.4728 70.068Z" fill="#3357BC"/>
<path d="M36.1396 56.8877L24.9492 68.4013C24.9492 68.4013 18.0104 83.9965 18.5716 86.1224C19.1328 88.2482 46.4628 68.5884 46.4628 68.5884L36.1396 56.8877Z" fill="url(#paint1_linear)"/>
<path d="M69.1838 67.0407C70.0172 66.3604 73.4185 62.4149 74.0478 62.5169C74.677 62.6189 74.3539 63.3842 73.9628 64.2686C73.5716 65.153 73.9117 64.8808 73.9117 64.8808C73.9117 64.8808 75.6124 64.5067 78.2825 64.6598C79.626 64.7448 80.5784 65.8332 78.4355 65.9863C79.507 66.2074 80.3913 67.1428 78.7587 67.5679C79.677 67.84 80.0002 68.6904 78.6396 69.0475C79.2008 69.1325 79.4219 69.7108 78.7417 70.238C78.3165 70.5611 76.8199 71.6666 74.0478 71.6496C71.2587 71.6326 69.3029 71.7686 69.3029 71.7686L69.1838 67.0407Z" fill="#E26713"/>
<path d="M74.0479 71.6666C76.837 71.6836 78.3166 70.5781 78.7417 70.255C79.422 69.7278 79.1839 69.1666 78.6397 69.0645C79.6941 68.7754 79.7451 68.2142 79.269 67.84C76.3778 69.0815 72.2622 69.4387 69.252 69.1496L69.32 71.7856C69.303 71.7686 71.2588 71.6496 74.0479 71.6666Z" fill="#C14E00"/>
<path d="M34.4388 59.6598C34.3028 63.0611 36.1395 65.187 36.1395 65.187C39.0647 67.772 46.8368 71.5135 51.2756 73.1972C55.7144 74.8808 70.8674 72.84 70.8674 72.84L69.1837 66.6495C69.1837 66.6495 55.7654 64.9489 52.1089 63.0441C48.4354 61.1223 44.932 57.1087 42.6361 56.1564C38.3844 54.3706 34.5579 56.9897 34.4388 59.6598Z" fill="#D8D8D8"/>
<defs>
<linearGradient id="paint0_linear" x1="300.273" y1="94.3911" x2="309.483" y2="23.9785" gradientUnits="userSpaceOnUse">
<stop offset="0.1209" stop-color="white"/>
<stop offset="0.2303" stop-color="#FBFBFB"/>
<stop offset="0.3447" stop-color="#EEEEEE"/>
<stop offset="0.4614" stop-color="#D9D9D9"/>
<stop offset="0.5797" stop-color="#BCBCBC"/>
<stop offset="0.6992" stop-color="#969696"/>
<stop offset="0.8182" stop-color="#696969"/>
<stop offset="0.8297" stop-color="#646464"/>
</linearGradient>
<linearGradient id="paint1_linear" x1="21.1262" y1="82.3317" x2="55.6225" y2="48.8246" gradientUnits="userSpaceOnUse">
<stop offset="0.1209" stop-color="white"/>
<stop offset="0.1972" stop-color="#FBFBFB"/>
<stop offset="0.277" stop-color="#EEEEEE"/>
<stop offset="0.3585" stop-color="#D9D9D9"/>
<stop offset="0.441" stop-color="#BCBCBC"/>
<stop offset="0.5244" stop-color="#969696"/>
<stop offset="0.6074" stop-color="#696969"/>
<stop offset="0.6154" stop-color="#646464"/>
</linearGradient>
</defs>
</svg>
